<?xml version="1.0" ?><!-- Uploaded to: SVG Repo, www.svgrepo.com, Generator: SVG Repo Mixer Tools -->
<svg width="800px" height="800px" viewBox="0 0 2050 2050" data-name="Layer 2" id="Layer_2" xmlns="http://www.w3.org/2000/svg"><defs><style>.cls-1{fill:#de3226;}.cls-2{fill:#323150;}.cls-3{fill:#b11a31;}.cls-4{fill:#84b320;}.cls-5{fill:#f4c23f;}.cls-6{fill:#67baeb;}.cls-7{fill:#4b7d27;}.cls-8{fill:#f4a93f;}.cls-9{fill:#46a1f8;}.cls-10{fill:#bddd2a;}.cls-11{fill:#fad564;}.cls-12{fill:#83d0fb;}</style></defs><title/><path class="cls-1" d="M1023.8,1183.8c-82.7,0-150.1-67.4-150.1-150.1s67.4-150.1,150.1-150.1,150.1,67.3,150.1,150.1S1106.6,1183.8,1023.8,1183.8Z"/><path class="cls-2" d="M672.3,1843.4c-27.4,0-52.3-6.2-74.3-18.7-42.9-24.3-71-70-83.5-135.8-11.5-60.1-9.6-135.1,5.5-223,30.7-178.1,112.7-391,230.9-599.6s258.8-388.4,395.8-506.2c67.6-58.2,131-98.3,188.5-119.4,62.9-23,116.5-22.3,159.4,2s70.9,69.9,83.5,135.7c11.5,60.1,9.6,135.1-5.5,223-30.7,178.1-112.7,391.1-230.9,599.7s-258.8,388.3-395.8,506.2c-67.7,58.1-131.1,98.3-188.5,119.3Q711.5,1843.4,672.3,1843.4ZM1420.1,264c-21.3,0-45.1,4.8-71.2,14.3-52.9,19.4-112.2,57.1-176.1,112.1S1041.9,516.6,976.5,599.8C908.6,686.1,844.4,782.4,785.7,886s-108.3,208.1-147.5,310.8c-37.8,98.8-64.3,191.7-78.8,275.9s-16.2,153.4-5.6,208.7c10.2,53.7,31.7,90.2,63.9,108.5s74.6,17.9,125.9-.9c53-19.3,112.2-57.1,176.2-112.1s130.8-126.1,196.2-209.3c68-86.4,132.2-182.7,190.9-286.3s108.3-208.1,147.5-310.7c37.7-98.9,64.2-191.7,78.7-276s16.3-153.3,5.7-208.7c-10.2-53.7-31.8-90.2-64-108.4C1459,268.5,1440.7,264,1420.1,264Z"/><path class="cls-2" d="M672.3,1843.4c-27.4,0-52.3-6.2-74.3-18.7-42.9-24.3-71-70-83.5-135.8-11.5-60.1-9.6-135.1,5.5-223,30.7-178.1,112.7-391,230.9-599.6s258.8-388.4,395.8-506.2c67.6-58.2,131-98.3,188.5-119.4,62.9-23,116.5-22.3,159.4,2s70.9,69.9,83.5,135.7c11.5,60.1,9.6,135.1-5.5,223-30.7,178.1-112.7,391.1-230.9,599.7s-258.8,388.3-395.8,506.2c-67.7,58.1-131.1,98.3-188.5,119.3Q711.5,1843.4,672.3,1843.4ZM1420.1,264c-21.3,0-45.1,4.8-71.2,14.3-52.9,19.4-112.2,57.1-176.1,112.1S1041.9,516.6,976.5,599.8C908.6,686.1,844.4,782.4,785.7,886s-108.3,208.1-147.5,310.8c-37.8,98.8-64.3,191.7-78.8,275.9s-16.2,153.4-5.6,208.7c10.2,53.7,31.7,90.2,63.9,108.5s74.6,17.9,125.9-.9c53-19.3,112.2-57.1,176.2-112.1s130.8-126.1,196.2-209.3c68-86.4,132.2-182.7,190.9-286.3s108.3-208.1,147.5-310.7c37.7-98.9,64.2-191.7,78.7-276s16.3-153.3,5.7-208.7c-10.2-53.7-31.8-90.2-64-108.4C1459,268.5,1440.7,264,1420.1,264Z"/><path class="cls-2" d="M1430.2,1837.3q-37.8,0-82.4-15.4c-57.7-20.2-121.8-59.3-190.3-116.3-138.9-115.7-282.3-293.2-403.9-499.8S546.7,787.5,513.1,609.9C496.6,522.3,493.5,447.3,504,387c11.5-66,38.9-112.1,81.4-137.1s96.1-26.4,159.3-4.4c57.8,20.1,121.9,59.2,190.4,116.3,138.9,115.6,282.3,293.1,403.8,499.8s207,418.3,240.5,595.8c16.6,87.7,19.6,162.7,9.1,222.9-11.5,66-38.8,112.1-81.3,137.1Q1473.3,1837.4,1430.2,1837.3ZM662.5,270.1c-21.5,0-40.6,4.7-56.8,14.3-31.9,18.8-52.9,55.6-62.3,109.5-9.6,55.5-6.6,125.7,9.1,208.6s43.8,176.4,83.1,274.6c40.9,102,92.2,205.8,152.5,308.4s126.1,197.9,195.4,283.1c66.7,82.2,133.9,151.5,199.6,206.2s124.7,90.8,177.9,109.3,94,17.6,125.9-1.2,52.8-55.6,62.2-109.5c9.7-55.5,6.7-125.7-9-208.6s-43.8-176.4-83.2-274.6c-40.8-102-92.1-205.7-152.4-308.4S1178.4,684,1109.1,598.7c-66.8-82.1-133.9-151.5-199.6-206.2S784.8,301.8,731.6,283.3C706.3,274.5,683.2,270.1,662.5,270.1Z"/><path class="cls-2" d="M1028.5,1373.2c-232.1,0-450.1-31.7-615.8-89.7-84.1-29.5-150.6-64.3-197.6-103.6-51.3-42.9-77.6-89.7-78-138.9s25.1-96.5,75.8-140.3c46.3-40,112.2-75.9,195.9-106.7,169.6-62.5,395-97.9,634.8-99.8s465.7,29.9,636.2,89.6c84.2,29.5,150.7,64.4,197.6,103.6,51.4,43,77.7,89.7,78.1,139s-25.1,96.4-75.8,140.2c-46.4,40-112.3,75.9-195.9,106.7-169.6,62.5-395,97.9-634.8,99.9Zm15.2-659,.2,20c-119.1.9-234.4,10.2-342.9,27.6C596.5,778.5,502.9,802,422.6,831.6S281.7,894.2,239.1,931s-62.3,72.6-62,109.6,21.7,73.6,63.7,108.6,105.5,68.7,185.2,96.5S600.6,1296,705.4,1311c108.7,15.7,224.3,23.1,343.3,22.2s234.4-10.3,342.9-27.7c104.5-16.7,198.1-40.2,278.3-69.7s141-62.6,183.6-99.5,62.3-72.6,62-109.6-21.8-73.5-63.7-108.6-105.6-68.6-185.2-96.5-174.7-50.2-279.4-65.3c-108.8-15.6-224.3-23.1-343.3-22.1Z"/><path class="cls-3" d="M1023.8,957.2a76.5,76.5,0,1,0,76.5,76.5A76.5,76.5,0,0,0,1023.8,957.2Z"/><circle class="cls-4" cx="1488.1" cy="254.2" r="83.6"/><circle class="cls-5" cx="1494.5" cy="1795.8" r="83.6"/><circle class="cls-6" cx="178.1" cy="1019.5" r="83.6"/><path class="cls-7" d="M1512.7,313a83.6,83.6,0,0,1-70.1-129,83.6,83.6,0,1,0,115.6,115.6A83.2,83.2,0,0,1,1512.7,313Z"/><path class="cls-8" d="M1519.2,1854.7a83.5,83.5,0,0,1-70.1-129,83.6,83.6,0,1,0,115.5,115.6A83.1,83.1,0,0,1,1519.2,1854.7Z"/><path class="cls-9" d="M202.8,1078.4a83.6,83.6,0,0,1-70.2-129,83.6,83.6,0,1,0,115.6,115.5A83.2,83.2,0,0,1,202.8,1078.4Z"/><circle class="cls-10" cx="1528.9" cy="232.1" r="39.7"/><circle class="cls-11" cx="1530.6" cy="1765.8" r="41.6"/><circle class="cls-12" cx="207.6" cy="975.8" r="35.1"/></svg>