<?xml version="1.0" encoding="utf-8"?>
<!-- Uploaded to: SVG Repo, www.svgrepo.com, Generator: SVG Repo Mixer Tools -->
<svg width="800px" height="800px" viewBox="0 0 1024 1024" class="icon"  version="1.1" xmlns="http://www.w3.org/2000/svg"><path d="M242.816 120.832h566.4V867.2h-566.4z" fill="#4185E8" /><path d="M284.672 831.936a16 16 0 0 1-16-16V260.096a16 16 0 0 1 16-16h5.184a16 16 0 0 1 16 16v555.84a16 16 0 0 1-16 16h-5.184zM242.816 120.832h566.4v51.136h-566.4z" fill="#FFFFFF" /><path d="M242.816 281.024h25.856v24h-25.856zM242.816 318.976h25.856v43.008h-25.856z" fill="#FFDC6C" /><path d="M404.032 281.024h81.024v81.024H404.032zM512 281.024h81.024v81.024H512zM484.992 754.688h134.976v24.256H484.992zM620.032 281.024h81.024v81.024H620.032z" fill="#406DB0" /><path d="M831.552 364.608a22.4 22.4 0 0 0-22.4 22.4v48a22.4 22.4 0 1 0 44.864 0v-48a22.4 22.4 0 0 0-22.464-22.4z" fill="" /><path d="M831.616 76.032h-611.2a22.528 22.528 0 0 0-22.4 22.4V889.6c0 12.288 10.112 22.4 22.4 22.4H304v76.032h42.688V912h484.928c12.288 0 22.4-10.048 22.4-22.4V509.696a22.4 22.4 0 0 0-44.864-0.064V867.2h-566.4V216.832h566.4v58.176h0.256a22.208 22.208 0 0 0 44.352 0h0.256V98.432a22.464 22.464 0 0 0-22.4-22.4z m-588.8 96v-51.2h566.4v51.136h-566.4z" fill="" /></svg>