<?xml version="1.0" encoding="utf-8"?>
<!-- Uploaded to: SVG Repo, www.svgrepo.com, Generator: SVG Repo Mixer Tools -->
<svg width="800px" height="800px" viewBox="0 0 1024 1024" class="icon"  version="1.1" xmlns="http://www.w3.org/2000/svg"><path d="M948.096 64h-851.2a22.528 22.528 0 0 0-22.4 22.4v851.2c0 12.288 10.112 22.4 22.4 22.4h75.072v-0.384c0.704 0.064 1.28 0.384 1.92 0.384a24.96 24.96 0 0 0 0-49.856c-0.704 0-1.28 0.32-1.92 0.384v-0.576h-52.672V322.816h806.4v369.28h-194.752a22.528 22.528 0 0 0-22.464 22.464v195.52H272v0.704c-0.832-0.128-1.472-0.512-2.368-0.512a24.896 24.896 0 1 0 0 49.728c0.832 0 1.536-0.384 2.368-0.512V960h497.92l200.576-199.744V86.4a22.464 22.464 0 0 0-22.4-22.4z m-194.752 842.624v-169.728h171.264l-171.264 169.728z" fill="" /><path d="M119.936 280a0.64 0.64 0 0 1-0.64-0.64V109.44a0.64 0.64 0 0 1 0.64-0.64h805.12a0.64 0.64 0 0 1 0.64 0.64v169.92a0.64 0.64 0 0 1-0.64 0.64H119.936z" fill="#FF3E3E" /><path d="M318.976 193.984m-54.016 0a54.016 54.016 0 1 0 108.032 0 54.016 54.016 0 1 0-108.032 0Z" fill="" /><path d="M318.976 193.984m-31.616 0a31.616 31.616 0 1 0 63.232 0 31.616 31.616 0 1 0-63.232 0Z" fill="#FFFFFF" /><path d="M726.016 193.984m-54.016 0a54.016 54.016 0 1 0 108.032 0 54.016 54.016 0 1 0-108.032 0Z" fill="" /><path d="M726.016 193.984m-31.616 0a31.616 31.616 0 1 0 63.232 0 31.616 31.616 0 1 0-63.232 0Z" fill="#FFFFFF" /><path d="M361.024 182.784h326.016v22.4H361.024z" fill="" /><path d="M176 378.688h692.032v92.032H176zM176 504h692.032v91.968H176zM176 629.376h472v92.032H176z" fill="#DCDCDC" /></svg>