<?xml version="1.0" ?>
<!-- Uploaded to: SVG Repo, www.svgrepo.com, Generator: SVG Repo Mixer Tools -->
<svg width="800px" height="800px" viewBox="0 0 512 512" id="Layer_1" version="1.1" xml:space="preserve" xmlns="http://www.w3.org/2000/svg" xmlns:xlink="http://www.w3.org/1999/xlink">
<style type="text/css">
	.st0{fill:#2B79C2;}
	.st1{fill:#3B4652;}
</style>
<g>
<g>
<path class="st0" d="M290.4,103.5H54.9c-15,0-27.2,12.2-27.2,27.2v145.2h290V130.7C317.6,115.6,305.5,103.5,290.4,103.5z"/>
<path class="st1" d="M27.7,304.7c0,15,12.2,27.2,27.2,27.2h94.9v62.7h-26.7c-3.9,0-7,3.1-7,7s3.1,7,7,7h99c3.9,0,7-3.1,7-7    s-3.1-7-7-7h-27.7v-62.7h95.9c15,0,27.2-12.2,27.2-27.2v-14.8h-290V304.7z"/>
</g>
<path class="st1" d="M471.4,103.4H369.9c-7.1,0-12.9,5.8-12.9,12.9v273.7c0,7.1,5.8,12.9,12.9,12.9h101.6c7.1,0,12.9-5.8,12.9-12.9   V116.3C484.3,109.2,478.5,103.4,471.4,103.4z M383.5,157.6h74.3v41h-74.3V157.6z M420.6,351.4c-11.8,0-21.4-9.6-21.4-21.4   c0-11.8,9.6-21.4,21.4-21.4c11.8,0,21.4,9.6,21.4,21.4C442,341.8,432.5,351.4,420.6,351.4z M457.8,229.2h-74.3c-3.9,0-7-3.1-7-7   s3.1-7,7-7h74.3c3.9,0,7,3.1,7,7S461.7,229.2,457.8,229.2z"/>
</g>
</svg>