<?xml version="1.0" encoding="utf-8"?>
<!-- Uploaded to: SVG Repo, www.svgrepo.com, Generator: SVG Repo Mixer Tools -->
<svg width="800px" height="800px" viewBox="0 0 1024 1024" class="icon"  version="1.1" xmlns="http://www.w3.org/2000/svg"><path d="M732.288 166.464l10.176-19.968a22.4 22.4 0 0 0-9.664-30.144h-0.064a22.528 22.528 0 0 0-30.144 9.792l-10.368 20.288a444.48 444.48 0 0 0-130.88-35.008v-41.28c0-26.432-21.568-48-48-48s-48 21.568-48 48v41.344a444.16 444.16 0 0 0-129.216 34.176l-9.92-19.456a22.528 22.528 0 0 0-30.144-9.792h-0.064a22.4 22.4 0 0 0-9.664 30.144l9.728 19.008A447.168 447.168 0 0 0 65.344 556.8a448 448 0 0 0 764.16 317.376l-0.256-0.32a22.016 22.016 0 0 0 7.552-16.512 22.4 22.4 0 0 0-22.464-22.4 22.016 22.016 0 0 0-15.36 6.272l-9.664-10.496 92.032-133.376 8.832 3.712c-0.32 1.472-0.896 2.88-0.896 4.416 0 12.352 10.048 21.376 22.4 22.464 12.352 1.088 20.16-12.352 20.672-13.696v-0.064a446.144 446.144 0 0 0 29.056-157.376 447.36 447.36 0 0 0-229.12-390.336z" fill="" /><path d="M862.912 800m-22.4 0a22.4 22.4 0 1 0 44.8 0 22.4 22.4 0 1 0-44.8 0Z" fill="" /><path d="M513.344 960c-222.336 0-403.2-180.864-403.2-403.2s180.864-403.2 403.2-403.2c222.336 0 403.2 180.864 403.2 403.2s-180.864 403.2-403.2 403.2z" fill="#1DA9FF" /><path d="M513.344 890.624A334.208 334.208 0 0 1 179.52 556.8a334.208 334.208 0 0 1 333.824-333.824A334.208 334.208 0 0 1 847.168 556.8a334.208 334.208 0 0 1-333.824 333.824z" fill="" /><path d="M513.344 845.824c-159.36 0-289.024-129.6-289.024-289.024s129.664-289.024 289.024-289.024S802.368 397.44 802.368 556.8s-129.6 289.024-289.024 289.024z" fill="#FFFFFF" /><path d="M544.896 588.288l189.312-31.488-189.312-31.488-31.552-189.312-31.488 189.312-189.312 31.488 189.312 31.488 31.488 189.312z" fill="#D3D3D3" /><path d="M487.36 530.816l182.144-130.176-130.176 182.144z" fill="#FF4B3B" /><path d="M487.36 530.816l182.144-130.176-156.16 156.16z" fill="#FF7E78" /><path d="M487.36 530.816L357.248 712.96l182.08-130.176z" fill="#0088DB" /><path d="M487.36 530.816L357.248 712.96 513.344 556.8z" fill="#34B6F7" /><path d="M513.344 556.8m-52.608 0a52.608 52.608 0 1 0 105.216 0 52.608 52.608 0 1 0-105.216 0Z" fill="#00DDF9" /><path d="M500.416 543.104m-21.056 0a21.056 21.056 0 1 0 42.112 0 21.056 21.056 0 1 0-42.112 0Z" fill="#FFFFFF" /><path d="M148.288 520.192a15.936 15.936 0 0 1-15.808-18.752c38.656-218.432 211.392-290.368 218.752-293.312 8-3.264 17.472 0.64 20.8 8.832s-0.64 17.472-8.832 20.864c-1.6 0.64-163.776 68.8-199.168 269.184a16 16 0 0 1-15.744 13.184z" fill="#FFFFFF" /></svg>