<?xml version="1.0" ?>
<!-- Uploaded to: SVG Repo, www.svgrepo.com, Generator: SVG Repo Mixer Tools -->
<svg width="800px" height="800px" viewBox="0 0 512 512" id="Layer_1" version="1.1" xml:space="preserve" xmlns="http://www.w3.org/2000/svg" xmlns:xlink="http://www.w3.org/1999/xlink">
<style type="text/css">
	.st0{fill:#2B79C2;}
	.st1{fill:#3B4652;}
</style>
<g>
<path class="st1" d="M163,308.1l-31.2-31.2l-27,27l103.4,103.4l27-27L163,308.1C163,308.1,163,308.1,163,308.1z"/>
<path class="st0" d="M210.4,335.8l15,15c0,0,0,0,0,0l19.7,19.7l64.1-64.1l15.3,15.4l9.9-9.9l-15.3-15.4l29.2-29.2l-46.8-46.8   L230,292c-0.2,0.2-0.4,0.4-0.6,0.6c6.7,11.1,5.3,25.7-4.3,35.3C220.9,332.1,215.8,334.7,210.4,335.8z"/>
<rect class="st1" height="28.8" transform="matrix(0.7071 -0.7071 0.7071 0.7071 -155.3916 337.7836)" width="41.4" x="309.4" y="342"/>
<rect class="st1" height="28.8" transform="matrix(0.7071 -0.7071 0.7071 0.7071 -116.2468 353.9972)" width="41.4" x="348.5" y="302.9"/>
<rect class="st1" height="19.7" transform="matrix(0.7071 -0.7071 0.7071 0.7071 -166.5962 364.8365)" width="41.4" x="336.4" y="373.7"/>
<polygon class="st1" points="388.6,385.8 359.3,415 373.2,428.9 373.2,428.9 402.5,399.7  "/>
<rect class="st1" height="28.8" transform="matrix(0.7071 -0.7071 0.7071 0.7071 -187.6629 415.6925)" width="41.4" x="387.3" y="420"/>
<rect class="st1" height="19.7" transform="matrix(0.7071 -0.7071 0.7071 0.7071 -127.4513 381.0464)" width="41.4" x="375.6" y="334.5"/>
<rect class="st1" height="19.7" transform="matrix(0.7071 -0.7071 0.7071 0.7071 -137.3137 404.8563)" width="41.4" x="399.4" y="358.3"/>
<rect class="st1" height="28.8" transform="matrix(0.7071 -0.7071 0.7071 0.7071 -148.5179 431.9113)" width="41.4" x="426.4" y="380.8"/>
<rect class="st1" height="28.8" transform="matrix(0.7071 -0.7071 0.7071 0.7071 -50.9829 85.7189)" width="41.4" x="57.3" y="90"/>
<rect class="st1" height="19.7" transform="matrix(0.7071 -0.7071 0.7071 0.7071 -62.1873 112.7686)" width="41.4" x="84.3" y="121.6"/>
<rect class="st1" height="19.7" transform="matrix(0.7071 -0.7071 0.7071 0.7071 -72.0499 136.5802)" width="41.4" x="108.2" y="145.4"/>
<polygon class="st1" points="180.2,178.4 180.7,177.9 180.7,177.9 160.3,157.5 131.1,186.7 151.5,207.1  "/>
<rect class="st1" height="28.8" transform="matrix(0.7073 -0.7069 0.7069 0.7073 -11.8435 101.9052)" width="41.4" x="96.4" y="50.8"/>
<rect class="st1" height="19.7" transform="matrix(0.7071 -0.7071 0.7071 0.7071 -23.0392 128.9865)" width="41.4" x="123.5" y="82.5"/>
<rect class="st1" height="19.7" transform="matrix(0.7071 -0.7071 0.7071 0.7071 -32.8998 152.7958)" width="41.4" x="147.3" y="106.3"/>
<rect class="st1" height="28.8" transform="matrix(0.7072 -0.707 0.707 0.7072 -44.1123 179.8056)" width="41.4" x="174.4" y="128.7"/>
<path class="st0" d="M200.5,177.9l-5.8,5.8v0.1l-4.1,4l15.2,15.2L141.7,267l15.7,15.7c0,0,0,0,0,0l15.4,15.5c0,0,0,0,0,0l3.5,3.5   c1.1-5.4,3.7-10.5,7.9-14.6c9.6-9.6,24.2-11,35.3-4.3c0.2-0.2,0.4-0.4,0.6-0.7l71.6-71.5l-46.8-46.8L215.7,193L200.5,177.9z"/>
<path class="st1" d="M292,382.8c-2.4-2.4-6.3-2.4-8.7,0l-13,13l-15.3-15.3l-9.9,9.9l15.3,15.3l-12.9,12.9c-2.4,2.4-2.4,6.3,0,8.7   l50,50c2.4,2.4,6.3,2.4,8.7,0l35.8-35.8c2.4-2.4,2.4-6.3,0-8.7L292,382.8z"/>
<path class="st0" d="M100.6,347.7c-3.7,1.4-4.7,6.1-1.9,8.9l56.9,56.9c2.8,2.8,7.5,1.8,8.9-1.9l7.8-20.4L121,340L100.6,347.7z"/>
<path class="st1" d="M121.9,267l9.9-9.9l-15.3-15.3l13.5-13.5c2.1-2.1,2.1-5.4,0-7.5l-51.2-51.2c-2.1-2.1-5.4-2.1-7.5,0l-37,37   c-2.1,2.1-2.1,5.4,0,7.5l51.2,51.2c2.1,2.1,5.4,2.1,7.5,0l13.5-13.5L121.9,267z"/>
<path class="st1" d="M305.2,172L289,188.1l22.5,22.5l0,0l12.6,12.6l16.2-16.1c0.8,0.5,1.5,0.9,2.3,1.4c43,25.8,99.7,20.1,136.8-17   L320.7,32.9c-37.1,37.1-42.8,93.7-17,136.8C304.2,170.4,304.7,171.2,305.2,172z"/>
<path class="st0" d="M414.9,107.2l22.4-22.4c7.1,3.1,15.6,1.8,21.4-4c7.5-7.5,7.5-19.8,0-27.3c-7.5-7.5-19.8-7.5-27.3,0   c-5.8,5.8-7.1,14.3-4,21.4L405,97.3L414.9,107.2z"/>
</g>
</svg>