<?xml version="1.0" ?>
<!-- Uploaded to: SVG Repo, www.svgrepo.com, Generator: SVG Repo Mixer Tools -->
<svg width="800px" height="800px" viewBox="0 0 512 512" id="Layer_1" version="1.1" xml:space="preserve" xmlns="http://www.w3.org/2000/svg" xmlns:xlink="http://www.w3.org/1999/xlink">
<style type="text/css">
	.st0{fill:#2B79C2;}
	.st1{fill:#3B4652;}
</style>
<g>
<path class="st1" d="M39.4,231.3l1.2,21.5c0.2,3.6,1.8,6.8,4.2,9.1c2.4,2.3,5.7,3.7,9.3,3.7c7.2,0,13.2-5.6,13.6-12.8l1.1-18.9   c-3,0.5-6.1,0.7-9.2,0.7C52.6,234.6,45.8,233.5,39.4,231.3z"/>
<path class="st1" d="M35,154.3c7.5-3.3,15.9-5.1,24.6-5.1c4.8,0,9.4,0.5,14,1.6l0.7-13.1h22.2c4.5,0,8.2-3.1,8.2-7s-3.7-7-8.2-7   H75.1l0.3-4.7c0-0.4,0-0.8,0-1.2c0-11.6-9.4-21.2-21.2-21.2C42,96.5,32.3,106.8,33,119l0.3,4.7H12.6c-4.5,0-8.2,3.1-8.2,7   s3.7,7,8.2,7h21.5L35,154.3z"/>
<path class="st1" d="M443.2,233.9l1.1,18.9c0.4,7.2,6.4,12.8,13.6,12.8c3.6,0,6.9-1.4,9.3-3.7c2.4-2.3,4-5.5,4.2-9.1l1.2-21.5   c-6.3,2.2-13.2,3.4-20.2,3.4C449.3,234.6,446.2,234.4,443.2,233.9z"/>
<path class="st1" d="M500.7,123.7h-21.9l0.3-4.7c0.7-12.2-9-22.4-21.2-22.4c-11.8,0-21.2,9.6-21.2,21.2c0,0.4,0,0.8,0,1.2l0.3,4.7   h-21c-4.8,0-8.7,3.1-8.7,7s3.9,7,8.7,7h21.8l0.7,13.1c4.5-1,9.2-1.6,14-1.6c8.7,0,17.1,1.8,24.6,5.1l1-16.7c0.1,0,0.3,0,0.4,0h22.4   c3.9,0,7-3.1,7-7S504.5,123.7,500.7,123.7z"/>
<path class="st0" d="M476.1,169.7c-6.5-4-14.7-6.5-23.7-6.5c-4.6,0-9.1,0.6-13.1,1.8c-1.9,0.5-3.7,1.2-5.4,1.9   c-3.5,1.5-15.5,3-30.6,4.2c-20.6,1.8-40.4-8.2-51.5-25.6c-17.3-27.1-53.7-45.8-95.8-45.8s-78.5,18.7-95.8,45.8   c-11.1,17.4-30.9,27.4-51.5,25.6c-15.1-1.3-27.1-2.7-30.6-4.2c-1.7-0.8-3.6-1.4-5.4-1.9c-4.1-1.2-8.5-1.8-13.1-1.8   c-9,0-17.3,2.4-23.7,6.5C27.4,174.9,22,183,22,191.9c0,9.9,6.5,18.6,16.5,23.7c6,3.1,13.3,4.9,21.1,4.9c3.5,0,6.8-0.3,10-1   c3-0.7,5.9-1.6,8.6-2.7c4.7-2,25-4,47.3-5.5c16.6-1.1,32.8,5.3,44.3,17.4c15,15.8,37.3,27.4,63.2,31.7v14.6h46v-14.6   c12.9-2.2,25-6.2,35.7-11.5c10.7-5.4,20-12.2,27.5-20.2c11.5-12.1,27.6-18.5,44.3-17.4c22.3,1.6,42.6,3.5,47.3,5.5   c2.7,1.2,5.5,2.1,8.6,2.7c3.2,0.7,6.5,1,10,1c7.8,0,15.1-1.8,21.1-4.9c10-5.2,16.5-13.9,16.5-23.7C490,183,484.6,174.9,476.1,169.7   z M256,214.7c-18.6,0-33.6-15-33.6-33.6c0-18.6,15-33.6,33.6-33.6s33.6,15,33.6,33.6C289.6,199.6,274.6,214.7,256,214.7z"/>
<path class="st1" d="M434.6,401.5h-14v-51c8-2.9,13.7-10.5,13.7-19.5c0-11.4-9.3-20.7-20.7-20.7c-9,0-16.6,5.7-19.5,13.7h-39.2   l3.6-15.6c2.3-9.9-5.3-19.4-15.4-19.4H168.9c-10.2,0-17.7,9.4-15.4,19.4l3.6,15.6h-37c-2.9-8-10.5-13.7-19.5-13.7   c-11.4,0-20.7,9.3-20.7,20.7c0,9,5.7,16.6,13.7,19.5v51h-14c-3.9,0-7,3.1-7,7s3.1,7,7,7h42c3.9,0,7-3.1,7-7s-3.1-7-7-7h-14v-51   c5.8-2.1,10.4-6.7,12.5-12.5h40.2l5.2,22.7c1.6,7.2,8,12.3,15.4,12.3h150.2c7.4,0,13.8-5.1,15.4-12.3l5.2-22.7h42.4   c2.1,5.8,6.7,10.4,12.5,12.5v51h-14c-3.9,0-7,3.1-7,7s3.1,7,7,7h42c3.9,0,7-3.1,7-7S438.4,401.5,434.6,401.5z M207.3,338h-15.5   c-3.9,0-7-3.1-7-7s3.1-7,7-7h15.5c3.9,0,7,3.1,7,7S211.1,338,207.3,338z M256,351.1c-11.1,0-20.1-9-20.1-20.1   c0-11.1,9-20.1,20.1-20.1s20.1,9,20.1,20.1C276.1,342.1,267.1,351.1,256,351.1z M320.3,338h-15.5c-3.9,0-7-3.1-7-7s3.1-7,7-7h15.5   c3.9,0,7,3.1,7,7S324.1,338,320.3,338z"/>
</g>
</svg>