<?xml version="1.0" ?>
<!-- Uploaded to: SVG Repo, www.svgrepo.com, Generator: SVG Repo Mixer Tools -->
<svg width="800px" height="800px" viewBox="0 0 512 512" id="Layer_1" version="1.1" xml:space="preserve" xmlns="http://www.w3.org/2000/svg" xmlns:xlink="http://www.w3.org/1999/xlink">
<style type="text/css">
	.st0{fill:#2B79C2;}
	.st1{fill:#3B4652;}
</style>
<g>
<path class="st0" d="M155.3,162v188c0,3.7,3,6.8,6.8,6.8h188c3.7,0,6.8-3,6.8-6.8V162c0-3.7-3-6.8-6.8-6.8H162   C158.3,155.3,155.3,158.3,155.3,162z M193.3,200c0-3.7,3-6.8,6.8-6.8h112c3.7,0,6.8,3,6.8,6.8v112c0,3.7-3,6.8-6.8,6.8H200   c-3.7,0-6.8-3-6.8-6.8V200z"/>
<path class="st1" d="M249,80.7v42.4c0,3.9,3.1,7,7,7s7-3.1,7-7V80.7c11.2-3.1,19.4-13.3,19.4-25.4c0-14.5-11.8-26.4-26.4-26.4   s-26.4,11.8-26.4,26.4C229.6,67.4,237.8,77.7,249,80.7z M256,42.9c6.8,0,12.4,5.6,12.4,12.4s-5.6,12.4-12.4,12.4   s-12.4-5.6-12.4-12.4S249.2,42.9,256,42.9z"/>
<path class="st1" d="M334.8,28.9c-14.5,0-26.4,11.8-26.4,26.4c0,12.1,8.2,22.3,19.4,25.4v42.4c0,3.9,3.1,7,7,7s7-3.1,7-7V80.7   c11.2-3.1,19.4-13.3,19.4-25.4C361.1,40.8,349.3,28.9,334.8,28.9z M334.8,67.7c-6.8,0-12.4-5.6-12.4-12.4s5.6-12.4,12.4-12.4   s12.4,5.6,12.4,12.4S341.6,67.7,334.8,67.7z"/>
<path class="st1" d="M170.3,80.7v42.4c0,3.9,3.1,7,7,7s7-3.1,7-7V80.7c11.2-3.1,19.4-13.3,19.4-25.4c0-14.5-11.8-26.4-26.4-26.4   s-26.4,11.8-26.4,26.4C150.9,67.4,159.1,77.7,170.3,80.7z M177.3,42.9c6.8,0,12.4,5.6,12.4,12.4s-5.6,12.4-12.4,12.4   s-12.4-5.6-12.4-12.4S170.4,42.9,177.3,42.9z"/>
<path class="st1" d="M263,431.3v-42.4c0-3.9-3.1-7-7-7s-7,3.1-7,7v42.4c-11.2,3.1-19.4,13.3-19.4,25.4c0,14.5,11.8,26.4,26.4,26.4   s26.4-11.8,26.4-26.4C282.4,444.6,274.2,434.3,263,431.3z M256,469.1c-6.8,0-12.4-5.6-12.4-12.4s5.6-12.4,12.4-12.4   s12.4,5.6,12.4,12.4S262.8,469.1,256,469.1z"/>
<path class="st1" d="M341.8,431.3v-42.4c0-3.9-3.1-7-7-7s-7,3.1-7,7v42.4c-11.2,3.1-19.4,13.3-19.4,25.4   c0,14.5,11.8,26.4,26.4,26.4s26.4-11.8,26.4-26.4C361.1,444.6,352.9,434.3,341.8,431.3z M334.8,469.1c-6.8,0-12.4-5.6-12.4-12.4   s5.6-12.4,12.4-12.4s12.4,5.6,12.4,12.4S341.6,469.1,334.8,469.1z"/>
<path class="st1" d="M184.3,431.3v-42.4c0-3.9-3.1-7-7-7s-7,3.1-7,7v42.4c-11.2,3.1-19.4,13.3-19.4,25.4   c0,14.5,11.8,26.4,26.4,26.4s26.4-11.8,26.4-26.4C203.6,444.6,195.4,434.3,184.3,431.3z M177.3,469.1c-6.8,0-12.4-5.6-12.4-12.4   s5.6-12.4,12.4-12.4s12.4,5.6,12.4,12.4S184.1,469.1,177.3,469.1z"/>
<path class="st1" d="M456.7,229.6c-12.1,0-22.3,8.2-25.4,19.4h-42.4c-3.9,0-7,3.1-7,7s3.1,7,7,7h42.4c3.1,11.2,13.3,19.4,25.4,19.4   c14.5,0,26.4-11.8,26.4-26.4S471.2,229.6,456.7,229.6z M456.7,268.4c-6.8,0-12.4-5.6-12.4-12.4s5.6-12.4,12.4-12.4   s12.4,5.6,12.4,12.4S463.5,268.4,456.7,268.4z"/>
<path class="st1" d="M456.7,308.4c-12.1,0-22.3,8.2-25.4,19.4h-42.4c-3.9,0-7,3.1-7,7s3.1,7,7,7h42.4c3.1,11.2,13.3,19.4,25.4,19.4   c14.5,0,26.4-11.8,26.4-26.4S471.2,308.4,456.7,308.4z M456.7,347.1c-6.8,0-12.4-5.6-12.4-12.4s5.6-12.4,12.4-12.4   s12.4,5.6,12.4,12.4S463.5,347.1,456.7,347.1z"/>
<path class="st1" d="M388.9,184.3h42.4c3.1,11.2,13.3,19.4,25.4,19.4c14.5,0,26.4-11.8,26.4-26.4s-11.8-26.4-26.4-26.4   c-12.1,0-22.3,8.2-25.4,19.4h-42.4c-3.9,0-7,3.1-7,7S385,184.3,388.9,184.3z M456.7,164.9c6.8,0,12.4,5.6,12.4,12.4   s-5.6,12.4-12.4,12.4s-12.4-5.6-12.4-12.4S449.9,164.9,456.7,164.9z"/>
<path class="st1" d="M123.1,249H80.7c-3.1-11.2-13.3-19.4-25.4-19.4c-14.5,0-26.4,11.8-26.4,26.4s11.8,26.4,26.4,26.4   c12.1,0,22.3-8.2,25.4-19.4h42.4c3.9,0,7-3.1,7-7S127,249,123.1,249z M55.3,268.4c-6.8,0-12.4-5.6-12.4-12.4s5.6-12.4,12.4-12.4   s12.4,5.6,12.4,12.4S62.1,268.4,55.3,268.4z"/>
<path class="st1" d="M123.1,327.8H80.7c-3.1-11.2-13.3-19.4-25.4-19.4c-14.5,0-26.4,11.8-26.4,26.4s11.8,26.4,26.4,26.4   c12.1,0,22.3-8.2,25.4-19.4h42.4c3.9,0,7-3.1,7-7S127,327.8,123.1,327.8z M55.3,347.1c-6.8,0-12.4-5.6-12.4-12.4   s5.6-12.4,12.4-12.4s12.4,5.6,12.4,12.4S62.1,347.1,55.3,347.1z"/>
<path class="st1" d="M123.1,170.3H80.7c-3.1-11.2-13.3-19.4-25.4-19.4c-14.5,0-26.4,11.8-26.4,26.4s11.8,26.4,26.4,26.4   c12.1,0,22.3-8.2,25.4-19.4h42.4c3.9,0,7-3.1,7-7S127,170.3,123.1,170.3z M55.3,189.6c-6.8,0-12.4-5.6-12.4-12.4   s5.6-12.4,12.4-12.4s12.4,5.6,12.4,12.4S62.1,189.6,55.3,189.6z"/>
</g>
</svg>