<?xml version="1.0" ?>
<!-- Uploaded to: SVG Repo, www.svgrepo.com, Generator: SVG Repo Mixer Tools -->
<svg width="800px" height="800px" viewBox="0 0 512 512" id="Layer_1" version="1.1" xml:space="preserve" xmlns="http://www.w3.org/2000/svg" xmlns:xlink="http://www.w3.org/1999/xlink">
<style type="text/css">
	.st0{fill:#2B79C2;}
	.st1{fill:#3B4652;}
</style>
<g>
<path class="st0" d="M417,386.5H95c-28.5,0-51.6,23.1-51.6,51.6c0,14.3,5.8,27.1,15.1,36.5c9.3,9.3,22.2,15.1,36.5,15.1H417   c28.5,0,51.6-23.1,51.6-51.6c0-14.3-5.8-27.2-15.1-36.5C444.2,392.2,431.3,386.5,417,386.5z M97.1,465.4   c-15.1,0-27.4-12.3-27.4-27.4c0-15.1,12.3-27.4,27.4-27.4s27.4,12.3,27.4,27.4C124.5,453.2,112.3,465.4,97.1,465.4z M157.4,439.4   c-0.1,0.4-0.2,0.9-0.4,1.3c-0.2,0.4-0.4,0.8-0.6,1.2c-0.3,0.4-0.6,0.8-0.9,1.1c-0.3,0.3-0.7,0.6-1.1,0.9c-0.4,0.3-0.8,0.5-1.2,0.6   c-0.4,0.2-0.9,0.3-1.3,0.4c-0.5,0.1-0.9,0.1-1.4,0.1c-0.5,0-0.9-0.1-1.4-0.1c-0.5-0.1-0.9-0.2-1.3-0.4c-0.4-0.2-0.8-0.4-1.2-0.6   c-0.4-0.3-0.7-0.6-1.1-0.9c-1.3-1.3-2.1-3.1-2.1-4.9c0-0.5,0-0.9,0.1-1.4c0.1-0.5,0.2-0.9,0.4-1.3c0.2-0.4,0.4-0.8,0.6-1.2   c0.3-0.4,0.5-0.7,0.9-1.1c0.3-0.3,0.7-0.6,1.1-0.9s0.8-0.5,1.2-0.6c0.4-0.2,0.9-0.3,1.3-0.4c0.9-0.2,1.8-0.2,2.7,0   c0.4,0.1,0.9,0.2,1.3,0.4c0.4,0.2,0.8,0.4,1.2,0.6c0.4,0.3,0.7,0.5,1.1,0.9c0.3,0.3,0.6,0.7,0.9,1.1c0.3,0.4,0.5,0.8,0.6,1.2   c0.2,0.4,0.3,0.9,0.4,1.3c0.1,0.4,0.1,0.9,0.1,1.4C157.5,438.5,157.5,439,157.4,439.4z M180.7,445.1c-3.9,0-7-3.1-7-7   c0-3.9,3.1-7,7-7c3.9,0,7,3.1,7,7C187.7,441.9,184.5,445.1,180.7,445.1z M209.6,445.1c-3.9,0-7-3.1-7-7c0-3.9,3.1-7,7-7s7,3.1,7,7   C216.6,441.9,213.5,445.1,209.6,445.1z M238.5,445.1c-3.9,0-7-3.1-7-7c0-3.9,3.1-7,7-7c3.9,0,7,3.1,7,7   C245.5,441.9,242.4,445.1,238.5,445.1z M267.4,445.1c-3.9,0-7-3.1-7-7c0-3.9,3.1-7,7-7c3.9,0,7,3.1,7,7   C274.4,441.9,271.3,445.1,267.4,445.1z M296.3,445.1c-3.9,0-7-3.1-7-7c0-3.9,3.1-7,7-7c3.9,0,7,3.1,7,7   C303.3,441.9,300.2,445.1,296.3,445.1z M325.2,445.1c-3.9,0-7-3.1-7-7c0-3.9,3.1-7,7-7c3.9,0,7,3.1,7,7   C332.2,441.9,329.1,445.1,325.2,445.1z M368.3,439.4c-0.1,0.4-0.2,0.9-0.4,1.3c-0.2,0.4-0.4,0.8-0.6,1.2c-0.3,0.4-0.5,0.7-0.9,1.1   c-1.3,1.3-3.1,2.1-4.9,2.1c-0.5,0-0.9-0.1-1.4-0.1c-0.4-0.1-0.9-0.2-1.3-0.4c-0.4-0.2-0.8-0.4-1.2-0.6c-0.4-0.3-0.7-0.6-1.1-0.9   c-1.3-1.3-2-3.1-2-4.9c0-1.8,0.8-3.7,2-5c0.3-0.3,0.7-0.6,1.1-0.9c0.4-0.3,0.8-0.5,1.2-0.6c0.4-0.2,0.9-0.3,1.3-0.4   c0.9-0.2,1.8-0.2,2.7,0c0.5,0.1,0.9,0.2,1.3,0.4c0.4,0.2,0.8,0.4,1.2,0.6s0.7,0.5,1.1,0.9c0.3,0.3,0.6,0.7,0.9,1.1   c0.3,0.4,0.5,0.8,0.6,1.2c0.2,0.4,0.3,0.9,0.4,1.3c0.1,0.4,0.1,0.9,0.1,1.4C368.5,438.5,368.4,439,368.3,439.4z M414.9,465.4   c-15.1,0-27.4-12.3-27.4-27.4c0-15.1,12.3-27.4,27.4-27.4s27.4,12.3,27.4,27.4C442.2,453.2,430,465.4,414.9,465.4z"/>
<path class="st0" d="M181.6,169.9c0.4,0,0.8,0,1.1-0.1c1.6,4.8,4.9,8.8,9.2,11.4c3.2,1.9,6.9,3,11,3c1,0,2.1-0.1,3-0.2v13.3h60.5   v-67.4H206v11.9c-1-0.1-2-0.2-3-0.2c-4,0-7.8,1.1-11,3c-4.3,2.6-7.5,6.6-9.2,11.4c-0.4-0.1-0.8-0.1-1.1-0.1h-63.1   c0.4,2.3,0.6,4.6,0.6,7c0,2.4-0.2,4.7-0.6,7H181.6z"/>
<path class="st1" d="M73.9,139.6c-10,3-17.3,12.3-17.3,23.3c0,13.4,10.9,24.3,24.3,24.3c11,0,20.4-7.3,23.3-17.4   c0.6-2.2,1-4.5,1-6.9c0-2.4-0.4-4.7-1-6.9c-2.3-7.8-8.5-14-16.3-16.4v-79h311.9v64.6c2.3-0.4,4.6-0.6,7-0.6s4.7,0.2,7,0.6V60.6   h54.9V22.3H43.4v38.2h30.5V139.6z"/>
<path class="st1" d="M253,211.3h-33.7v10.8h9.3c0,0,0,0,0,0v16.7c0,3.9,3.1,7,7,7s7-3.1,7-7v-16.7c0,0,0,0,0,0H253V211.3z"/>
<polygon class="st1" points="259.6,100.3 212.2,100.3 218.6,115.9 253.3,115.9  "/>
<path class="st1" d="M406.8,138.6c-13.4,0-24.3,10.9-24.3,24.3c0,10.8,7,19.9,16.7,23.1v14.5v49.9c2.3-0.5,4.6-0.7,7-0.7   s4.7,0.2,7,0.7v-49.7v-14.3c10.4-2.8,18-12.2,18-23.5C431.1,149.4,420.2,138.6,406.8,138.6z"/>
<path class="st0" d="M439.1,288v60.5h-67.4V288H385c-0.1-1-0.2-2-0.2-3c0-11.8,9.5-21.3,21.3-21.3c11.8,0,21.3,9.5,21.3,21.3   c0,1-0.1,2.1-0.2,3H439.1z"/>
<path class="st1" d="M357.7,335v-13.2v-8.4v-12.1h-10.8v9.3h-16.7c-3.9,0-7,3.1-7,7c0,3.9,3.1,7,7,7h16.7V335H357.7z"/>
<polygon class="st1" points="453.1,300.6 453.1,335.2 468.6,341.6 468.6,294.2  "/>
<path class="st1" d="M302.4,372.5V275c0-4.6-3.8-8.4-8.4-8.4H177.4c-4.6,0-8.4,3.8-8.4,8.4v97.5h29.2V333c0-3.9,3.1-7,7-7   c3.9,0,7,3.1,7,7v39.4h16.5V333c0-3.9,3.1-7,7-7c3.9,0,7,3.1,7,7v39.4h16.5V333c0-3.9,3.1-7,7-7c3.9,0,7,3.1,7,7v39.4H302.4z"/>
</g>
</svg>