<?xml version="1.0" ?>
<!-- Uploaded to: SVG Repo, www.svgrepo.com, Generator: SVG Repo Mixer Tools -->
<svg width="800px" height="800px" viewBox="0 0 64 64" xmlns="http://www.w3.org/2000/svg">
<defs>
<style>.cls-1{fill:none;stroke:#000000;stroke-linecap:round;stroke-linejoin:round;stroke-width:2px;}</style>
</defs>
<title/>
<g data-name="Layer 7" id="Layer_7">
<path class="cls-1" d="M26,21.56c4.74-6.28.93-15.64-6.91-16.28-.31,0-.62,0-.94,0a11.57,11.57,0,0,0-2.78.34c-6.81,1.69-9.55,10-5.5,15.7l7,10a1.07,1.07,0,0,0,1.72,0Z"/>
<circle class="cls-1" cx="18.04" cy="14.56" r="5.48"/>
<path class="cls-1" d="M42.61,47.32c3-3.92.58-9.78-4.32-10.18l-.59,0a7,7,0,0,0-1.73.21,6.34,6.34,0,0,0-3.44,9.82l4.41,6.24a.66.66,0,0,0,1.07,0Z"/>
<circle class="cls-1" cx="37.63" cy="42.94" r="2.47"/>
<polyline class="cls-1" points="53.37 24.03 62.29 47.44 34.29 58.02 2.21 47.44 11.98 28.07"/>
<polyline class="cls-1" points="28.86 21.16 34.13 23.86 36.79 22.51"/>
<line class="cls-1" x1="34.28" x2="34.29" y1="54.46" y2="58.02"/>
<line class="cls-1" x1="34.13" x2="34.18" y1="23.86" y2="35.37"/>
<path class="cls-1" d="M40,21h3.44l.9,4.06a1,1,0,0,0,1.85.17L48,21H63V1H40Z"/>
<line class="cls-1" x1="44" x2="47" y1="5" y2="5"/>
<line class="cls-1" x1="50" x2="60" y1="5" y2="5"/>
<line class="cls-1" x1="44" x2="52" y1="9" y2="9"/>
<line class="cls-1" x1="56" x2="59" y1="9" y2="9"/>
<line class="cls-1" x1="46" x2="60" y1="13" y2="13"/>
<line class="cls-1" x1="44" x2="56" y1="17" y2="17"/>
</g>
</svg>