<svg xmlns="http://www.w3.org/2000/svg" width="512" height="512" viewBox="0 0 24 24" fill="#000000"><g fill="none" stroke="#000000" stroke-linecap="round" stroke-linejoin="round" stroke-width="1.5"><path d="m9.25 18.876l-6.512-4.682m3.002-2.673l5.143 3.813M.751 11.751a2.5 2.5 0 1 0 5 0a2.5 2.5 0 0 0-5 0m4.886-.746l5.611-5.465m-.856-3.962L1.257 10.25m8.492-7a2.5 2.5 0 1 0 5 0a2.5 2.5 0 0 0-5 0m6.545 4.132l-2.3-2.35m1.756 3.719a2 2 0 1 0 4 0a2 2 0 0 0-4 0"/><path d="M19.7 8.3a3 3 0 0 1 3.55 2.951m-3 3A3 3 0 0 1 17.3 10.7M1 23.251h22m-13.75 0V18a3 3 0 0 1 6 0v5.25"/></g></svg>