<?xml version="1.0" encoding="iso-8859-1"?>
<!-- Uploaded to: SVG Repo, www.svgrepo.com, Generator: SVG Repo Mixer Tools -->
<svg height="800px" width="800px" version="1.1" id="Capa_1" xmlns="http://www.w3.org/2000/svg" xmlns:xlink="http://www.w3.org/1999/xlink" 
	 viewBox="0 0 496 496" xml:space="preserve">
<g>
	<g>
		<path style="fill:#FF9600;" d="M481.656,226.344l-40-40c-1.5-1.5-3.531-2.344-5.656-2.344H244c-4.422,0-8,3.582-8,8v80
			c0,4.418,3.578,8,8,8h192c2.125,0,4.156-0.844,5.656-2.344l40-40C484.781,234.531,484.781,229.469,481.656,226.344z"/>
	</g>
	<g>
		<path style="fill:#FFD200;" d="M212,104H60c-2.125,0-4.156,0.844-5.656,2.344l-40,40c-3.125,3.125-3.125,8.188,0,11.312l40,40
			c1.5,1.5,3.531,2.344,5.656,2.344h152c4.422,0,8-3.582,8-8v-80C220,107.582,216.422,104,212,104z"/>
	</g>
	<g>
		<path style="fill:#FFEF43;" d="M425.656,66.344l-40-40c-1.5-1.5-3.531-2.344-5.656-2.344H244c-4.422,0-8,3.582-8,8v80
			c0,4.418,3.578,8,8,8h136c2.125,0,4.156-0.844,5.656-2.344l40-40C428.781,74.531,428.781,69.469,425.656,66.344z"/>
	</g>
	<g>
		<path style="fill:#7E5C62;" d="M244,496h-32V16c0-8.837,7.163-16,16-16h0c8.837,0,16,7.163,16,16V496z"/>
	</g>
	<g>
		<g>
			<path style="fill:#FFFFFF;" d="M372,80h-48c-4.422,0-8-3.582-8-8c0-4.418,3.578-8,8-8h48c4.422,0,8,3.582,8,8
				C380,76.418,376.422,80,372,80z"/>
		</g>
	</g>
	<g>
		<g>
			<path style="fill:#FFFFFF;" d="M292,80h-8c-4.422,0-8-3.582-8-8c0-4.418,3.578-8,8-8h8c4.422,0,8,3.582,8,8
				C300,76.418,296.422,80,292,80z"/>
		</g>
	</g>
	<g>
		<g>
			<path style="fill:#FFD200;" d="M428,240h-32c-4.422,0-8-3.582-8-8c0-4.418,3.578-8,8-8h32c4.422,0,8,3.582,8,8
				C436,236.418,432.422,240,428,240z"/>
		</g>
	</g>
	<g>
		<g>
			<path style="fill:#FFD200;" d="M364,240h-80c-4.422,0-8-3.582-8-8c0-4.418,3.578-8,8-8h80c4.422,0,8,3.582,8,8
				C372,236.418,368.422,240,364,240z"/>
		</g>
	</g>
	<g>
		<g>
			<path style="fill:#FFEFBC;" d="M172,160h-32c-4.422,0-8-3.582-8-8s3.578-8,8-8h32c4.422,0,8,3.582,8,8S176.422,160,172,160z"/>
		</g>
	</g>
	<g>
		<g>
			<path style="fill:#FFEFBC;" d="M108,160H76c-4.422,0-8-3.582-8-8s3.578-8,8-8h32c4.422,0,8,3.582,8,8S112.422,160,108,160z"/>
		</g>
	</g>
</g>
</svg>