<?xml version="1.0" encoding="iso-8859-1"?>
<!-- Uploaded to: SVG Repo, www.svgrepo.com, Generator: SVG Repo Mixer Tools -->
<svg height="800px" width="800px" version="1.1" id="Capa_1" xmlns="http://www.w3.org/2000/svg" xmlns:xlink="http://www.w3.org/1999/xlink" 
	 viewBox="0 0 504 504" xml:space="preserve">
<g>
	<g>
		<path style="fill:#53DCFF;" d="M460,160.427c23.686-11.789,40-36.173,40-64.427s-16.314-52.638-40-64.427"/>
	</g>
	<g>
		<path style="fill:#5C546A;" d="M452,192h-48c-4.418,0-8-3.582-8-8V8c0-4.418,3.582-8,8-8h48c4.418,0,8,3.582,8,8v176
			C460,188.418,456.418,192,452,192z"/>
	</g>
	<g>
		<path style="fill:#B9BBC1;" d="M220,144H116c-4.418,0-8-3.582-8-8V56c0-4.418,3.582-8,8-8h104"/>
	</g>
	<g>
		<path style="fill:#D8DCE1;" d="M108,128H44c-4.418,0-8-3.582-8-8V72c0-4.418,3.582-8,8-8h64"/>
	</g>
	<g>
		<path style="fill:#D8DCE1;" d="M36,112H12c-4.418,0-8-3.582-8-8V88c0-4.418,3.582-8,8-8h24"/>
	</g>
	<g>
		<g>
			<path style="fill:#5C546A;" d="M252,504c-4.422,0-8-3.582-8-8V200c0-4.418,3.578-8,8-8s8,3.582,8,8v296
				C260,500.418,256.422,504,252,504z"/>
		</g>
	</g>
	<g>
		<g>
			<path style="fill:#5C546A;" d="M67.992,504c-1.328,0-2.672-0.328-3.906-1.023c-3.852-2.16-5.227-7.039-3.062-10.891l184-328
				c2.164-3.859,7.047-5.227,10.891-3.062c3.852,2.16,5.227,7.039,3.062,10.891l-184,328C73.508,502.531,70.789,504,67.992,504z"/>
		</g>
	</g>
	<g>
		<g>
			<path style="fill:#5C546A;" d="M436.008,504c-2.797,0-5.516-1.469-6.984-4.086l-184-328c-2.164-3.852-0.789-8.73,3.062-10.891
				c3.836-2.156,8.727-0.797,10.891,3.062l184,328c2.164,3.852,0.789,8.73-3.062,10.891C438.679,503.672,437.336,504,436.008,504z"
				/>
		</g>
	</g>
	<g>
		<path style="fill:#8B8996;" d="M396,168H228c-4.418,0-8-3.582-8-8V32c0-4.418,3.582-8,8-8h168V168z"/>
	</g>
	<g>
		<circle style="fill:#5C546A;" cx="252" cy="168" r="32"/>
	</g>
	<g>
		<circle style="fill:#8B8996;" cx="252" cy="168" r="16"/>
	</g>
</g>
</svg>